<mxfile host="65bd71144e">
    <diagram id="C5RBs43oDa-KdzZeNtuy" name="Page-1">
        <mxGraphModel dx="1971" dy="481" grid="1" gridSize="10" guides="1" tooltips="1" connect="1" arrows="1" fold="1" page="1" pageScale="1" pageWidth="827" pageHeight="1169" math="0" shadow="0">
            <root>
                <mxCell id="WIyWlLk6GJQsqaUBKTNV-0"/>
                <mxCell id="WIyWlLk6GJQsqaUBKTNV-1" parent="WIyWlLk6GJQsqaUBKTNV-0"/>
                <mxCell id="nmCX1HU52F9oMf6bqaSX-96" style="edgeStyle=orthogonalEdgeStyle;rounded=0;orthogonalLoop=1;jettySize=auto;html=1;" parent="WIyWlLk6GJQsqaUBKTNV-1" source="zkfFHV4jXpPFQw0GAbJ--6" edge="1">
                    <mxGeometry relative="1" as="geometry">
                        <mxPoint x="-60" y="470" as="targetPoint"/>
                    </mxGeometry>
                </mxCell>
                <mxCell id="zkfFHV4jXpPFQw0GAbJ--6" value="Gateway" style="swimlane;fontStyle=0;align=center;verticalAlign=top;childLayout=stackLayout;horizontal=1;startSize=26;horizontalStack=0;resizeParent=1;resizeLast=0;collapsible=1;marginBottom=0;rounded=0;shadow=0;strokeWidth=1;fillColor=#d5e8d4;strokeColor=#82b366;" parent="WIyWlLk6GJQsqaUBKTNV-1" vertex="1">
                    <mxGeometry x="-140" y="760" width="160" height="150" as="geometry">
                        <mxRectangle x="130" y="380" width="160" height="26" as="alternateBounds"/>
                    </mxGeometry>
                </mxCell>
                <mxCell id="zkfFHV4jXpPFQw0GAbJ--7" value="gatewayClassName : string" style="text;align=left;verticalAlign=top;spacingLeft=4;spacingRight=4;overflow=hidden;rotatable=0;points=[[0,0.5],[1,0.5]];portConstraint=eastwest;" parent="zkfFHV4jXpPFQw0GAbJ--6" vertex="1">
                    <mxGeometry y="26" width="160" height="26" as="geometry"/>
                </mxCell>
                <mxCell id="zkfFHV4jXpPFQw0GAbJ--8" value="listeners:&#10;      name: string&#10;      protocol&#10;      port&#10;" style="text;align=left;verticalAlign=top;spacingLeft=4;spacingRight=4;overflow=hidden;rotatable=0;points=[[0,0.5],[1,0.5]];portConstraint=eastwest;rounded=0;shadow=0;html=0;" parent="zkfFHV4jXpPFQw0GAbJ--6" vertex="1">
                    <mxGeometry y="52" width="160" height="68" as="geometry"/>
                </mxCell>
                <mxCell id="zkfFHV4jXpPFQw0GAbJ--9" value="" style="line;html=1;strokeWidth=1;align=left;verticalAlign=middle;spacingTop=-1;spacingLeft=3;spacingRight=3;rotatable=0;labelPosition=right;points=[];portConstraint=eastwest;" parent="zkfFHV4jXpPFQw0GAbJ--6" vertex="1">
                    <mxGeometry y="120" width="160" height="8" as="geometry"/>
                </mxCell>
                <mxCell id="nmCX1HU52F9oMf6bqaSX-47" style="edgeStyle=orthogonalEdgeStyle;rounded=0;orthogonalLoop=1;jettySize=auto;html=1;exitX=0.5;exitY=1;exitDx=0;exitDy=0;entryX=0.412;entryY=0;entryDx=0;entryDy=0;entryPerimeter=0;" parent="WIyWlLk6GJQsqaUBKTNV-1" source="zkfFHV4jXpPFQw0GAbJ--13" target="nmCX1HU52F9oMf6bqaSX-29" edge="1">
                    <mxGeometry relative="1" as="geometry">
                        <mxPoint x="395" y="560" as="targetPoint"/>
                        <Array as="points">
                            <mxPoint x="310" y="545"/>
                            <mxPoint x="60" y="545"/>
                        </Array>
                    </mxGeometry>
                </mxCell>
                <mxCell id="nmCX1HU52F9oMf6bqaSX-48" style="edgeStyle=orthogonalEdgeStyle;rounded=0;orthogonalLoop=1;jettySize=auto;html=1;exitX=0.5;exitY=1;exitDx=0;exitDy=0;" parent="WIyWlLk6GJQsqaUBKTNV-1" source="zkfFHV4jXpPFQw0GAbJ--13" target="nmCX1HU52F9oMf6bqaSX-19" edge="1">
                    <mxGeometry relative="1" as="geometry">
                        <Array as="points">
                            <mxPoint x="310" y="570"/>
                            <mxPoint x="310" y="570"/>
                        </Array>
                    </mxGeometry>
                </mxCell>
                <mxCell id="nmCX1HU52F9oMf6bqaSX-49" style="edgeStyle=orthogonalEdgeStyle;rounded=0;orthogonalLoop=1;jettySize=auto;html=1;exitX=0.75;exitY=1;exitDx=0;exitDy=0;entryX=0.5;entryY=0;entryDx=0;entryDy=0;" parent="WIyWlLk6GJQsqaUBKTNV-1" source="zkfFHV4jXpPFQw0GAbJ--13" target="nmCX1HU52F9oMf6bqaSX-35" edge="1">
                    <mxGeometry relative="1" as="geometry">
                        <Array as="points">
                            <mxPoint x="310" y="480"/>
                            <mxPoint x="310" y="545"/>
                            <mxPoint x="565" y="545"/>
                        </Array>
                    </mxGeometry>
                </mxCell>
                <mxCell id="zkfFHV4jXpPFQw0GAbJ--13" value="API" style="swimlane;fontStyle=0;align=center;verticalAlign=top;childLayout=stackLayout;horizontal=1;startSize=26;horizontalStack=0;resizeParent=1;resizeLast=0;collapsible=1;marginBottom=0;rounded=0;shadow=0;strokeWidth=1;fillColor=#f8cecc;strokeColor=#b85450;" parent="WIyWlLk6GJQsqaUBKTNV-1" vertex="1">
                    <mxGeometry x="225" y="270" width="170" height="210" as="geometry">
                        <mxRectangle x="340" y="380" width="170" height="26" as="alternateBounds"/>
                    </mxGeometry>
                </mxCell>
                <mxCell id="zkfFHV4jXpPFQw0GAbJ--14" value="apiDisplayName: string" style="text;align=left;verticalAlign=top;spacingLeft=4;spacingRight=4;overflow=hidden;rotatable=0;points=[[0,0.5],[1,0.5]];portConstraint=eastwest;" parent="zkfFHV4jXpPFQw0GAbJ--13" vertex="1">
                    <mxGeometry y="26" width="170" height="24" as="geometry"/>
                </mxCell>
                <mxCell id="nmCX1HU52F9oMf6bqaSX-13" value="apiVersion" style="text;align=left;verticalAlign=top;spacingLeft=4;spacingRight=4;overflow=hidden;rotatable=0;points=[[0,0.5],[1,0.5]];portConstraint=eastwest;" parent="zkfFHV4jXpPFQw0GAbJ--13" vertex="1">
                    <mxGeometry y="50" width="170" height="24" as="geometry"/>
                </mxCell>
                <mxCell id="nmCX1HU52F9oMf6bqaSX-17" value="apiType" style="text;align=left;verticalAlign=top;spacingLeft=4;spacingRight=4;overflow=hidden;rotatable=0;points=[[0,0.5],[1,0.5]];portConstraint=eastwest;" parent="zkfFHV4jXpPFQw0GAbJ--13" vertex="1">
                    <mxGeometry y="74" width="170" height="24" as="geometry"/>
                </mxCell>
                <mxCell id="nmCX1HU52F9oMf6bqaSX-18" value="context" style="text;align=left;verticalAlign=top;spacingLeft=4;spacingRight=4;overflow=hidden;rotatable=0;points=[[0,0.5],[1,0.5]];portConstraint=eastwest;" parent="zkfFHV4jXpPFQw0GAbJ--13" vertex="1">
                    <mxGeometry y="98" width="170" height="24" as="geometry"/>
                </mxCell>
                <mxCell id="zkfFHV4jXpPFQw0GAbJ--15" value="" style="line;html=1;strokeWidth=1;align=left;verticalAlign=middle;spacingTop=-1;spacingLeft=3;spacingRight=3;rotatable=0;labelPosition=right;points=[];portConstraint=eastwest;" parent="zkfFHV4jXpPFQw0GAbJ--13" vertex="1">
                    <mxGeometry y="122" width="170" height="8" as="geometry"/>
                </mxCell>
                <mxCell id="nmCX1HU52F9oMf6bqaSX-15" value="prodHTTPRouteRef" style="text;align=left;verticalAlign=top;spacingLeft=4;spacingRight=4;overflow=hidden;rotatable=0;points=[[0,0.5],[1,0.5]];portConstraint=eastwest;" parent="zkfFHV4jXpPFQw0GAbJ--13" vertex="1">
                    <mxGeometry y="130" width="170" height="24" as="geometry"/>
                </mxCell>
                <mxCell id="nmCX1HU52F9oMf6bqaSX-16" value="sandHTTPRouteRef" style="text;align=left;verticalAlign=top;spacingLeft=4;spacingRight=4;overflow=hidden;rotatable=0;points=[[0,0.5],[1,0.5]];portConstraint=eastwest;" parent="zkfFHV4jXpPFQw0GAbJ--13" vertex="1">
                    <mxGeometry y="154" width="170" height="24" as="geometry"/>
                </mxCell>
                <mxCell id="nmCX1HU52F9oMf6bqaSX-14" value="definitionFileRef" style="text;align=left;verticalAlign=top;spacingLeft=4;spacingRight=4;overflow=hidden;rotatable=0;points=[[0,0.5],[1,0.5]];portConstraint=eastwest;" parent="zkfFHV4jXpPFQw0GAbJ--13" vertex="1">
                    <mxGeometry y="178" width="170" height="24" as="geometry"/>
                </mxCell>
                <mxCell id="nmCX1HU52F9oMf6bqaSX-54" style="edgeStyle=orthogonalEdgeStyle;rounded=0;orthogonalLoop=1;jettySize=auto;html=1;exitX=0;exitY=0.5;exitDx=0;exitDy=0;" parent="WIyWlLk6GJQsqaUBKTNV-1" source="nmCX1HU52F9oMf6bqaSX-20" target="zkfFHV4jXpPFQw0GAbJ--8" edge="1">
                    <mxGeometry relative="1" as="geometry">
                        <mxPoint x="780" y="890" as="targetPoint"/>
                        <Array as="points">
                            <mxPoint x="130" y="776"/>
                            <mxPoint x="130" y="820"/>
                        </Array>
                    </mxGeometry>
                </mxCell>
                <mxCell id="nmCX1HU52F9oMf6bqaSX-58" style="edgeStyle=orthogonalEdgeStyle;rounded=0;orthogonalLoop=1;jettySize=auto;html=1;entryX=1;entryY=0.5;entryDx=0;entryDy=0;" parent="WIyWlLk6GJQsqaUBKTNV-1" source="nmCX1HU52F9oMf6bqaSX-25" target="nmCX1HU52F9oMf6bqaSX-56" edge="1">
                    <mxGeometry relative="1" as="geometry"/>
                </mxCell>
                <mxCell id="nmCX1HU52F9oMf6bqaSX-66" style="edgeStyle=orthogonalEdgeStyle;rounded=0;orthogonalLoop=1;jettySize=auto;html=1;entryX=0.5;entryY=0;entryDx=0;entryDy=0;exitX=0;exitY=0.5;exitDx=0;exitDy=0;" parent="WIyWlLk6GJQsqaUBKTNV-1" source="nmCX1HU52F9oMf6bqaSX-34" target="nmCX1HU52F9oMf6bqaSX-99" edge="1">
                    <mxGeometry relative="1" as="geometry">
                        <mxPoint x="170" y="830" as="targetPoint"/>
                        <Array as="points">
                            <mxPoint x="180" y="720"/>
                            <mxPoint x="180" y="840"/>
                            <mxPoint x="105" y="840"/>
                        </Array>
                    </mxGeometry>
                </mxCell>
                <mxCell id="nmCX1HU52F9oMf6bqaSX-19" value="prodHTTPRouteRef (HTTPRoute)" style="swimlane;fontStyle=0;align=center;verticalAlign=top;childLayout=stackLayout;horizontal=1;startSize=26;horizontalStack=0;resizeParent=1;resizeLast=0;collapsible=1;marginBottom=0;rounded=0;shadow=0;strokeWidth=1;fillColor=#d5e8d4;strokeColor=#82b366;" parent="WIyWlLk6GJQsqaUBKTNV-1" vertex="1">
                    <mxGeometry x="202" y="610" width="216" height="190" as="geometry">
                        <mxRectangle x="340" y="380" width="170" height="26" as="alternateBounds"/>
                    </mxGeometry>
                </mxCell>
                <mxCell id="nmCX1HU52F9oMf6bqaSX-21" value="hostnames" style="text;align=left;verticalAlign=top;spacingLeft=4;spacingRight=4;overflow=hidden;rotatable=0;points=[[0,0.5],[1,0.5]];portConstraint=eastwest;" parent="nmCX1HU52F9oMf6bqaSX-19" vertex="1">
                    <mxGeometry y="26" width="216" height="24" as="geometry"/>
                </mxCell>
                <mxCell id="nmCX1HU52F9oMf6bqaSX-22" value="rules" style="text;align=left;verticalAlign=top;spacingLeft=4;spacingRight=4;overflow=hidden;rotatable=0;points=[[0,0.5],[1,0.5]];portConstraint=eastwest;" parent="nmCX1HU52F9oMf6bqaSX-19" vertex="1">
                    <mxGeometry y="50" width="216" height="24" as="geometry"/>
                </mxCell>
                <mxCell id="nmCX1HU52F9oMf6bqaSX-23" value="    matches " style="text;align=left;verticalAlign=top;spacingLeft=4;spacingRight=4;overflow=hidden;rotatable=0;points=[[0,0.5],[1,0.5]];portConstraint=eastwest;" parent="nmCX1HU52F9oMf6bqaSX-19" vertex="1">
                    <mxGeometry y="74" width="216" height="24" as="geometry"/>
                </mxCell>
                <mxCell id="nmCX1HU52F9oMf6bqaSX-34" value="    filters " style="text;align=left;verticalAlign=top;spacingLeft=4;spacingRight=4;overflow=hidden;rotatable=0;points=[[0,0.5],[1,0.5]];portConstraint=eastwest;" parent="nmCX1HU52F9oMf6bqaSX-19" vertex="1">
                    <mxGeometry y="98" width="216" height="24" as="geometry"/>
                </mxCell>
                <mxCell id="nmCX1HU52F9oMf6bqaSX-24" value="" style="line;html=1;strokeWidth=1;align=left;verticalAlign=middle;spacingTop=-1;spacingLeft=3;spacingRight=3;rotatable=0;labelPosition=right;points=[];portConstraint=eastwest;" parent="nmCX1HU52F9oMf6bqaSX-19" vertex="1">
                    <mxGeometry y="122" width="216" height="8" as="geometry"/>
                </mxCell>
                <mxCell id="nmCX1HU52F9oMf6bqaSX-25" value="    backendRefs : Service" style="text;align=left;verticalAlign=top;spacingLeft=4;spacingRight=4;overflow=hidden;rotatable=0;points=[[0,0.5],[1,0.5]];portConstraint=eastwest;" parent="nmCX1HU52F9oMf6bqaSX-19" vertex="1">
                    <mxGeometry y="130" width="216" height="24" as="geometry"/>
                </mxCell>
                <mxCell id="nmCX1HU52F9oMf6bqaSX-20" value="parentRefs : Gateway" style="text;align=left;verticalAlign=top;spacingLeft=4;spacingRight=4;overflow=hidden;rotatable=0;points=[[0,0.5],[1,0.5]];portConstraint=eastwest;" parent="nmCX1HU52F9oMf6bqaSX-19" vertex="1">
                    <mxGeometry y="154" width="216" height="24" as="geometry"/>
                </mxCell>
                <mxCell id="nmCX1HU52F9oMf6bqaSX-29" value="definitionFileRef (ConfigMap)" style="swimlane;fontStyle=0;align=center;verticalAlign=top;childLayout=stackLayout;horizontal=1;startSize=26;horizontalStack=0;resizeParent=1;resizeLast=0;collapsible=1;marginBottom=0;rounded=0;shadow=0;strokeWidth=1;fillColor=#f8cecc;strokeColor=#b85450;" parent="WIyWlLk6GJQsqaUBKTNV-1" vertex="1">
                    <mxGeometry x="-10" y="610" width="170" height="80" as="geometry">
                        <mxRectangle x="550" y="140" width="160" height="26" as="alternateBounds"/>
                    </mxGeometry>
                </mxCell>
                <mxCell id="nmCX1HU52F9oMf6bqaSX-30" value="" style="line;html=1;strokeWidth=1;align=left;verticalAlign=middle;spacingTop=-1;spacingLeft=3;spacingRight=3;rotatable=0;labelPosition=right;points=[];portConstraint=eastwest;" parent="nmCX1HU52F9oMf6bqaSX-29" vertex="1">
                    <mxGeometry y="26" width="170" height="48" as="geometry"/>
                </mxCell>
                <mxCell id="nmCX1HU52F9oMf6bqaSX-35" value="sandHTTPRouteRef (HTTPRoute)" style="swimlane;fontStyle=0;align=center;verticalAlign=top;childLayout=stackLayout;horizontal=1;startSize=26;horizontalStack=0;resizeParent=1;resizeLast=0;collapsible=1;marginBottom=0;rounded=0;shadow=0;strokeWidth=1;fillColor=#d5e8d4;strokeColor=#82b366;" parent="WIyWlLk6GJQsqaUBKTNV-1" vertex="1">
                    <mxGeometry x="457" y="610" width="216" height="190" as="geometry">
                        <mxRectangle x="340" y="380" width="170" height="26" as="alternateBounds"/>
                    </mxGeometry>
                </mxCell>
                <mxCell id="nmCX1HU52F9oMf6bqaSX-37" value="hostnames" style="text;align=left;verticalAlign=top;spacingLeft=4;spacingRight=4;overflow=hidden;rotatable=0;points=[[0,0.5],[1,0.5]];portConstraint=eastwest;" parent="nmCX1HU52F9oMf6bqaSX-35" vertex="1">
                    <mxGeometry y="26" width="216" height="24" as="geometry"/>
                </mxCell>
                <mxCell id="nmCX1HU52F9oMf6bqaSX-38" value="rules" style="text;align=left;verticalAlign=top;spacingLeft=4;spacingRight=4;overflow=hidden;rotatable=0;points=[[0,0.5],[1,0.5]];portConstraint=eastwest;" parent="nmCX1HU52F9oMf6bqaSX-35" vertex="1">
                    <mxGeometry y="50" width="216" height="24" as="geometry"/>
                </mxCell>
                <mxCell id="nmCX1HU52F9oMf6bqaSX-39" value="    matches " style="text;align=left;verticalAlign=top;spacingLeft=4;spacingRight=4;overflow=hidden;rotatable=0;points=[[0,0.5],[1,0.5]];portConstraint=eastwest;" parent="nmCX1HU52F9oMf6bqaSX-35" vertex="1">
                    <mxGeometry y="74" width="216" height="24" as="geometry"/>
                </mxCell>
                <mxCell id="nmCX1HU52F9oMf6bqaSX-40" value="    filters" style="text;align=left;verticalAlign=top;spacingLeft=4;spacingRight=4;overflow=hidden;rotatable=0;points=[[0,0.5],[1,0.5]];portConstraint=eastwest;" parent="nmCX1HU52F9oMf6bqaSX-35" vertex="1">
                    <mxGeometry y="98" width="216" height="24" as="geometry"/>
                </mxCell>
                <mxCell id="nmCX1HU52F9oMf6bqaSX-42" value="" style="line;html=1;strokeWidth=1;align=left;verticalAlign=middle;spacingTop=-1;spacingLeft=3;spacingRight=3;rotatable=0;labelPosition=right;points=[];portConstraint=eastwest;" parent="nmCX1HU52F9oMf6bqaSX-35" vertex="1">
                    <mxGeometry y="122" width="216" height="8" as="geometry"/>
                </mxCell>
                <mxCell id="nmCX1HU52F9oMf6bqaSX-41" value="    backendRefs : Service" style="text;align=left;verticalAlign=top;spacingLeft=4;spacingRight=4;overflow=hidden;rotatable=0;points=[[0,0.5],[1,0.5]];portConstraint=eastwest;" parent="nmCX1HU52F9oMf6bqaSX-35" vertex="1">
                    <mxGeometry y="130" width="216" height="24" as="geometry"/>
                </mxCell>
                <mxCell id="nmCX1HU52F9oMf6bqaSX-36" value="parentRefs : Gateway" style="text;align=left;verticalAlign=top;spacingLeft=4;spacingRight=4;overflow=hidden;rotatable=0;points=[[0,0.5],[1,0.5]];portConstraint=eastwest;" parent="nmCX1HU52F9oMf6bqaSX-35" vertex="1">
                    <mxGeometry y="154" width="216" height="24" as="geometry"/>
                </mxCell>
                <mxCell id="nmCX1HU52F9oMf6bqaSX-56" value="Service" style="swimlane;fontStyle=0;align=center;verticalAlign=top;childLayout=stackLayout;horizontal=1;startSize=26;horizontalStack=0;resizeParent=1;resizeLast=0;collapsible=1;marginBottom=0;rounded=0;shadow=0;strokeWidth=1;fillColor=#d5e8d4;strokeColor=#82b366;" parent="WIyWlLk6GJQsqaUBKTNV-1" vertex="1">
                    <mxGeometry x="40" y="715" width="70" height="74" as="geometry">
                        <mxRectangle x="550" y="140" width="160" height="26" as="alternateBounds"/>
                    </mxGeometry>
                </mxCell>
                <mxCell id="nmCX1HU52F9oMf6bqaSX-57" value="" style="line;html=1;strokeWidth=1;align=left;verticalAlign=middle;spacingTop=-1;spacingLeft=3;spacingRight=3;rotatable=0;labelPosition=right;points=[];portConstraint=eastwest;" parent="nmCX1HU52F9oMf6bqaSX-56" vertex="1">
                    <mxGeometry y="26" width="70" height="48" as="geometry"/>
                </mxCell>
                <mxCell id="nmCX1HU52F9oMf6bqaSX-75" style="edgeStyle=orthogonalEdgeStyle;rounded=0;orthogonalLoop=1;jettySize=auto;html=1;exitX=1;exitY=0.5;exitDx=0;exitDy=0;" parent="WIyWlLk6GJQsqaUBKTNV-1" source="nmCX1HU52F9oMf6bqaSX-70" edge="1">
                    <mxGeometry relative="1" as="geometry">
                        <mxPoint x="365" y="800" as="targetPoint"/>
                        <mxPoint x="345" y="1076" as="sourcePoint"/>
                        <Array as="points">
                            <mxPoint x="365" y="1076"/>
                        </Array>
                    </mxGeometry>
                </mxCell>
                <mxCell id="nmCX1HU52F9oMf6bqaSX-67" value="Authentication" style="swimlane;fontStyle=0;align=center;verticalAlign=top;childLayout=stackLayout;horizontal=1;startSize=26;horizontalStack=0;resizeParent=1;resizeLast=0;collapsible=1;marginBottom=0;rounded=0;shadow=0;strokeWidth=1;fillColor=#fff2cc;strokeColor=#d6b656;" parent="WIyWlLk6GJQsqaUBKTNV-1" vertex="1">
                    <mxGeometry x="70" y="990" width="260" height="190" as="geometry">
                        <mxRectangle x="340" y="380" width="170" height="26" as="alternateBounds"/>
                    </mxGeometry>
                </mxCell>
                <mxCell id="nmCX1HU52F9oMf6bqaSX-69" value="disabled" style="text;align=left;verticalAlign=top;spacingLeft=4;spacingRight=4;overflow=hidden;rotatable=0;points=[[0,0.5],[1,0.5]];portConstraint=eastwest;" parent="nmCX1HU52F9oMf6bqaSX-67" vertex="1">
                    <mxGeometry y="26" width="260" height="24" as="geometry"/>
                </mxCell>
                <mxCell id="nmCX1HU52F9oMf6bqaSX-68" value="jwt" style="text;align=left;verticalAlign=top;spacingLeft=4;spacingRight=4;overflow=hidden;rotatable=0;points=[[0,0.5],[1,0.5]];portConstraint=eastwest;" parent="nmCX1HU52F9oMf6bqaSX-67" vertex="1">
                    <mxGeometry y="50" width="260" height="24" as="geometry"/>
                </mxCell>
                <mxCell id="nmCX1HU52F9oMf6bqaSX-70" value="basicAuth" style="text;align=left;verticalAlign=top;spacingLeft=4;spacingRight=4;overflow=hidden;rotatable=0;points=[[0,0.5],[1,0.5]];portConstraint=eastwest;" parent="nmCX1HU52F9oMf6bqaSX-67" vertex="1">
                    <mxGeometry y="74" width="260" height="24" as="geometry"/>
                </mxCell>
                <mxCell id="nmCX1HU52F9oMf6bqaSX-71" value="mtls" style="text;align=left;verticalAlign=top;spacingLeft=4;spacingRight=4;overflow=hidden;rotatable=0;points=[[0,0.5],[1,0.5]];portConstraint=eastwest;" parent="nmCX1HU52F9oMf6bqaSX-67" vertex="1">
                    <mxGeometry y="98" width="260" height="24" as="geometry"/>
                </mxCell>
                <mxCell id="nmCX1HU52F9oMf6bqaSX-76" value="apiKey" style="text;align=left;verticalAlign=top;spacingLeft=4;spacingRight=4;overflow=hidden;rotatable=0;points=[[0,0.5],[1,0.5]];portConstraint=eastwest;" parent="nmCX1HU52F9oMf6bqaSX-67" vertex="1">
                    <mxGeometry y="122" width="260" height="24" as="geometry"/>
                </mxCell>
                <mxCell id="nmCX1HU52F9oMf6bqaSX-72" value="" style="line;html=1;strokeWidth=1;align=left;verticalAlign=middle;spacingTop=-1;spacingLeft=3;spacingRight=3;rotatable=0;labelPosition=right;points=[];portConstraint=eastwest;" parent="nmCX1HU52F9oMf6bqaSX-67" vertex="1">
                    <mxGeometry y="146" width="260" height="8" as="geometry"/>
                </mxCell>
                <mxCell id="nmCX1HU52F9oMf6bqaSX-73" value="targetRef : HTTPRoute/Resource/Gateway" style="text;align=left;verticalAlign=top;spacingLeft=4;spacingRight=4;overflow=hidden;rotatable=0;points=[[0,0.5],[1,0.5]];portConstraint=eastwest;" parent="nmCX1HU52F9oMf6bqaSX-67" vertex="1">
                    <mxGeometry y="154" width="260" height="24" as="geometry"/>
                </mxCell>
                <mxCell id="nmCX1HU52F9oMf6bqaSX-78" value="APIPolicy" style="swimlane;fontStyle=0;align=center;verticalAlign=top;childLayout=stackLayout;horizontal=1;startSize=26;horizontalStack=0;resizeParent=1;resizeLast=0;collapsible=1;marginBottom=0;rounded=0;shadow=0;strokeWidth=1;fillColor=#fff2cc;strokeColor=#d6b656;" parent="WIyWlLk6GJQsqaUBKTNV-1" vertex="1">
                    <mxGeometry x="395" y="990" width="260" height="202" as="geometry">
                        <mxRectangle x="340" y="380" width="170" height="26" as="alternateBounds"/>
                    </mxGeometry>
                </mxCell>
                <mxCell id="nmCX1HU52F9oMf6bqaSX-79" value="cORSPolicy" style="text;align=left;verticalAlign=top;spacingLeft=4;spacingRight=4;overflow=hidden;rotatable=0;points=[[0,0.5],[1,0.5]];portConstraint=eastwest;" parent="nmCX1HU52F9oMf6bqaSX-78" vertex="1">
                    <mxGeometry y="26" width="260" height="24" as="geometry"/>
                </mxCell>
                <mxCell id="nmCX1HU52F9oMf6bqaSX-80" value="requestQueryModifier" style="text;align=left;verticalAlign=top;spacingLeft=4;spacingRight=4;overflow=hidden;rotatable=0;points=[[0,0.5],[1,0.5]];portConstraint=eastwest;" parent="nmCX1HU52F9oMf6bqaSX-78" vertex="1">
                    <mxGeometry y="50" width="260" height="24" as="geometry"/>
                </mxCell>
                <mxCell id="nmCX1HU52F9oMf6bqaSX-81" value="requestHTTPMethodModifier" style="text;align=left;verticalAlign=top;spacingLeft=4;spacingRight=4;overflow=hidden;rotatable=0;points=[[0,0.5],[1,0.5]];portConstraint=eastwest;" parent="nmCX1HU52F9oMf6bqaSX-78" vertex="1">
                    <mxGeometry y="74" width="260" height="24" as="geometry"/>
                </mxCell>
                <mxCell id="nmCX1HU52F9oMf6bqaSX-82" value="OPAPolicy" style="text;align=left;verticalAlign=top;spacingLeft=4;spacingRight=4;overflow=hidden;rotatable=0;points=[[0,0.5],[1,0.5]];portConstraint=eastwest;" parent="nmCX1HU52F9oMf6bqaSX-78" vertex="1">
                    <mxGeometry y="98" width="260" height="24" as="geometry"/>
                </mxCell>
                <mxCell id="nmCX1HU52F9oMf6bqaSX-83" value="RequestInterceptor" style="text;align=left;verticalAlign=top;spacingLeft=4;spacingRight=4;overflow=hidden;rotatable=0;points=[[0,0.5],[1,0.5]];portConstraint=eastwest;" parent="nmCX1HU52F9oMf6bqaSX-78" vertex="1">
                    <mxGeometry y="122" width="260" height="24" as="geometry"/>
                </mxCell>
                <mxCell id="nmCX1HU52F9oMf6bqaSX-84" value="ResponseInterceptor" style="text;align=left;verticalAlign=top;spacingLeft=4;spacingRight=4;overflow=hidden;rotatable=0;points=[[0,0.5],[1,0.5]];portConstraint=eastwest;" parent="nmCX1HU52F9oMf6bqaSX-78" vertex="1">
                    <mxGeometry y="146" width="260" height="24" as="geometry"/>
                </mxCell>
                <mxCell id="nmCX1HU52F9oMf6bqaSX-85" value="" style="line;html=1;strokeWidth=1;align=left;verticalAlign=middle;spacingTop=-1;spacingLeft=3;spacingRight=3;rotatable=0;labelPosition=right;points=[];portConstraint=eastwest;" parent="nmCX1HU52F9oMf6bqaSX-78" vertex="1">
                    <mxGeometry y="170" width="260" height="8" as="geometry"/>
                </mxCell>
                <mxCell id="nmCX1HU52F9oMf6bqaSX-86" value="targetRef : HTTPRoute/Resource/Gateway" style="text;align=left;verticalAlign=top;spacingLeft=4;spacingRight=4;overflow=hidden;rotatable=0;points=[[0,0.5],[1,0.5]];portConstraint=eastwest;" parent="nmCX1HU52F9oMf6bqaSX-78" vertex="1">
                    <mxGeometry y="178" width="260" height="24" as="geometry"/>
                </mxCell>
                <mxCell id="nmCX1HU52F9oMf6bqaSX-87" value="GatewayClass" style="swimlane;fontStyle=2;align=center;verticalAlign=top;childLayout=stackLayout;horizontal=1;startSize=26;horizontalStack=0;resizeParent=1;resizeLast=0;collapsible=1;marginBottom=0;rounded=0;shadow=0;strokeWidth=1;fillColor=#d5e8d4;strokeColor=#82b366;" parent="WIyWlLk6GJQsqaUBKTNV-1" vertex="1">
                    <mxGeometry x="-150" y="370" width="180" height="90" as="geometry">
                        <mxRectangle x="230" y="140" width="160" height="26" as="alternateBounds"/>
                    </mxGeometry>
                </mxCell>
                <mxCell id="nmCX1HU52F9oMf6bqaSX-88" value="controllerName : string" style="text;align=left;verticalAlign=top;spacingLeft=4;spacingRight=4;overflow=hidden;rotatable=0;points=[[0,0.5],[1,0.5]];portConstraint=eastwest;" parent="nmCX1HU52F9oMf6bqaSX-87" vertex="1">
                    <mxGeometry y="26" width="180" height="26" as="geometry"/>
                </mxCell>
                <mxCell id="nmCX1HU52F9oMf6bqaSX-89" value="" style="line;html=1;strokeWidth=1;align=left;verticalAlign=middle;spacingTop=-1;spacingLeft=3;spacingRight=3;rotatable=0;labelPosition=right;points=[];portConstraint=eastwest;" parent="nmCX1HU52F9oMf6bqaSX-87" vertex="1">
                    <mxGeometry y="52" width="180" height="8" as="geometry"/>
                </mxCell>
                <mxCell id="nmCX1HU52F9oMf6bqaSX-90" value="parametersRef : gatewayconfig" style="text;align=left;verticalAlign=top;spacingLeft=4;spacingRight=4;overflow=hidden;rotatable=0;points=[[0,0.5],[1,0.5]];portConstraint=eastwest;" parent="nmCX1HU52F9oMf6bqaSX-87" vertex="1">
                    <mxGeometry y="60" width="180" height="30" as="geometry"/>
                </mxCell>
                <mxCell id="nmCX1HU52F9oMf6bqaSX-91" value="gatewayconfig (ConfigMap)" style="swimlane;fontStyle=0;align=center;verticalAlign=top;childLayout=stackLayout;horizontal=1;startSize=26;horizontalStack=0;resizeParent=1;resizeLast=0;collapsible=1;marginBottom=0;rounded=0;shadow=0;strokeWidth=1;fillColor=#d5e8d4;strokeColor=#82b366;" parent="WIyWlLk6GJQsqaUBKTNV-1" vertex="1">
                    <mxGeometry x="-340" y="400" width="150" height="80" as="geometry">
                        <mxRectangle x="550" y="140" width="160" height="26" as="alternateBounds"/>
                    </mxGeometry>
                </mxCell>
                <mxCell id="nmCX1HU52F9oMf6bqaSX-92" value="" style="line;html=1;strokeWidth=1;align=left;verticalAlign=middle;spacingTop=-1;spacingLeft=3;spacingRight=3;rotatable=0;labelPosition=right;points=[];portConstraint=eastwest;" parent="nmCX1HU52F9oMf6bqaSX-91" vertex="1">
                    <mxGeometry y="26" width="150" height="48" as="geometry"/>
                </mxCell>
                <mxCell id="nmCX1HU52F9oMf6bqaSX-93" value="" style="endArrow=open;shadow=0;strokeWidth=1;rounded=0;endFill=1;edgeStyle=elbowEdgeStyle;elbow=vertical;" parent="WIyWlLk6GJQsqaUBKTNV-1" source="nmCX1HU52F9oMf6bqaSX-87" target="nmCX1HU52F9oMf6bqaSX-91" edge="1">
                    <mxGeometry x="0.5" y="41" relative="1" as="geometry">
                        <mxPoint x="-75" y="392" as="sourcePoint"/>
                        <mxPoint x="85" y="392" as="targetPoint"/>
                        <mxPoint x="-40" y="32" as="offset"/>
                    </mxGeometry>
                </mxCell>
                <mxCell id="nmCX1HU52F9oMf6bqaSX-94" value="" style="resizable=0;align=left;verticalAlign=bottom;labelBackgroundColor=none;fontSize=12;" parent="nmCX1HU52F9oMf6bqaSX-93" connectable="0" vertex="1">
                    <mxGeometry x="-1" relative="1" as="geometry">
                        <mxPoint y="4" as="offset"/>
                    </mxGeometry>
                </mxCell>
                <mxCell id="nmCX1HU52F9oMf6bqaSX-95" value="" style="resizable=0;align=right;verticalAlign=bottom;labelBackgroundColor=none;fontSize=12;" parent="nmCX1HU52F9oMf6bqaSX-93" connectable="0" vertex="1">
                    <mxGeometry x="1" relative="1" as="geometry">
                        <mxPoint x="-7" y="4" as="offset"/>
                    </mxGeometry>
                </mxCell>
                <mxCell id="nmCX1HU52F9oMf6bqaSX-97" style="edgeStyle=orthogonalEdgeStyle;rounded=0;orthogonalLoop=1;jettySize=auto;html=1;exitX=0;exitY=0.5;exitDx=0;exitDy=0;entryX=0.75;entryY=1;entryDx=0;entryDy=0;" parent="WIyWlLk6GJQsqaUBKTNV-1" source="nmCX1HU52F9oMf6bqaSX-81" target="nmCX1HU52F9oMf6bqaSX-19" edge="1">
                    <mxGeometry relative="1" as="geometry">
                        <mxPoint x="240" y="800" as="targetPoint"/>
                    </mxGeometry>
                </mxCell>
                <mxCell id="nmCX1HU52F9oMf6bqaSX-99" value="Scope" style="swimlane;fontStyle=0;align=center;verticalAlign=top;childLayout=stackLayout;horizontal=1;startSize=26;horizontalStack=0;resizeParent=1;resizeLast=0;collapsible=1;marginBottom=0;rounded=0;shadow=0;strokeWidth=1;fillColor=#f8cecc;strokeColor=#b85450;" parent="WIyWlLk6GJQsqaUBKTNV-1" vertex="1">
                    <mxGeometry x="70" y="870" width="70" height="74" as="geometry">
                        <mxRectangle x="550" y="140" width="160" height="26" as="alternateBounds"/>
                    </mxGeometry>
                </mxCell>
                <mxCell id="nmCX1HU52F9oMf6bqaSX-100" value="" style="line;html=1;strokeWidth=1;align=left;verticalAlign=middle;spacingTop=-1;spacingLeft=3;spacingRight=3;rotatable=0;labelPosition=right;points=[];portConstraint=eastwest;" parent="nmCX1HU52F9oMf6bqaSX-99" vertex="1">
                    <mxGeometry y="26" width="70" height="48" as="geometry"/>
                </mxCell>
                <mxCell id="nmCX1HU52F9oMf6bqaSX-101" value="RateLimiter" style="swimlane;fontStyle=0;align=center;verticalAlign=top;childLayout=stackLayout;horizontal=1;startSize=26;horizontalStack=0;resizeParent=1;resizeLast=0;collapsible=1;marginBottom=0;rounded=0;shadow=0;strokeWidth=1;fillColor=#d5e8d4;strokeColor=#82b366;" parent="WIyWlLk6GJQsqaUBKTNV-1" vertex="1">
                    <mxGeometry x="220" y="870" width="70" height="74" as="geometry">
                        <mxRectangle x="550" y="140" width="160" height="26" as="alternateBounds"/>
                    </mxGeometry>
                </mxCell>
                <mxCell id="nmCX1HU52F9oMf6bqaSX-102" value="" style="line;html=1;strokeWidth=1;align=left;verticalAlign=middle;spacingTop=-1;spacingLeft=3;spacingRight=3;rotatable=0;labelPosition=right;points=[];portConstraint=eastwest;" parent="nmCX1HU52F9oMf6bqaSX-101" vertex="1">
                    <mxGeometry y="26" width="70" height="48" as="geometry"/>
                </mxCell>
                <mxCell id="nmCX1HU52F9oMf6bqaSX-103" style="edgeStyle=orthogonalEdgeStyle;rounded=0;orthogonalLoop=1;jettySize=auto;html=1;exitX=0;exitY=0.5;exitDx=0;exitDy=0;" parent="WIyWlLk6GJQsqaUBKTNV-1" source="nmCX1HU52F9oMf6bqaSX-34" target="nmCX1HU52F9oMf6bqaSX-101" edge="1">
                    <mxGeometry relative="1" as="geometry">
                        <Array as="points">
                            <mxPoint x="182" y="720"/>
                            <mxPoint x="182" y="840"/>
                            <mxPoint x="255" y="840"/>
                        </Array>
                    </mxGeometry>
                </mxCell>
                <mxCell id="2" value="BackendPolicy" style="swimlane;fontStyle=0;align=center;verticalAlign=top;childLayout=stackLayout;horizontal=1;startSize=26;horizontalStack=0;resizeParent=1;resizeLast=0;collapsible=1;marginBottom=0;rounded=0;shadow=0;strokeWidth=1;fillColor=#f8cecc;strokeColor=#b85450;" vertex="1" parent="WIyWlLk6GJQsqaUBKTNV-1">
                    <mxGeometry x="-260" y="610" width="170" height="130" as="geometry">
                        <mxRectangle x="340" y="380" width="170" height="26" as="alternateBounds"/>
                    </mxGeometry>
                </mxCell>
                <mxCell id="3" value="protocol: string" style="text;align=left;verticalAlign=top;spacingLeft=4;spacingRight=4;overflow=hidden;rotatable=0;points=[[0,0.5],[1,0.5]];portConstraint=eastwest;" vertex="1" parent="2">
                    <mxGeometry y="26" width="170" height="24" as="geometry"/>
                </mxCell>
                <mxCell id="4" value="tls&#10;  " style="text;align=left;verticalAlign=top;spacingLeft=4;spacingRight=4;overflow=hidden;rotatable=0;points=[[0,0.5],[1,0.5]];portConstraint=eastwest;" vertex="1" parent="2">
                    <mxGeometry y="50" width="170" height="24" as="geometry"/>
                </mxCell>
                <mxCell id="6" value="  certificateInline: inline string" style="text;align=left;verticalAlign=top;spacingLeft=4;spacingRight=4;overflow=hidden;rotatable=0;points=[[0,0.5],[1,0.5]];portConstraint=eastwest;" vertex="1" parent="2">
                    <mxGeometry y="74" width="170" height="24" as="geometry"/>
                </mxCell>
                <mxCell id="7" value="" style="line;html=1;strokeWidth=1;align=left;verticalAlign=middle;spacingTop=-1;spacingLeft=3;spacingRight=3;rotatable=0;labelPosition=right;points=[];portConstraint=eastwest;" vertex="1" parent="2">
                    <mxGeometry y="98" width="170" height="8" as="geometry"/>
                </mxCell>
                <mxCell id="12" value="targetRef: Service" style="text;align=left;verticalAlign=top;spacingLeft=4;spacingRight=4;overflow=hidden;rotatable=0;points=[[0,0.5],[1,0.5]];portConstraint=eastwest;" vertex="1" parent="2">
                    <mxGeometry y="106" width="170" height="24" as="geometry"/>
                </mxCell>
                <mxCell id="17" style="edgeStyle=orthogonalEdgeStyle;html=1;exitX=1;exitY=0.5;exitDx=0;exitDy=0;entryX=0;entryY=0.5;entryDx=0;entryDy=0;" edge="1" parent="WIyWlLk6GJQsqaUBKTNV-1" source="6" target="nmCX1HU52F9oMf6bqaSX-56">
                    <mxGeometry relative="1" as="geometry"/>
                </mxCell>
            </root>
        </mxGraphModel>
    </diagram>
</mxfile>